name pl10_filtered_grf.mot
datacolumns 37
datarows 7
range 0.417000 0.420000
endheader
time	1_ground_force_vx	1_ground_force_vy	1_ground_force_vz	1_ground_force_px	1_ground_force_py	1_ground_force_pz	1_ground_torque_x	1_ground_torque_y	1_ground_torque_z	2_ground_force_vx	2_ground_force_vy	2_ground_force_vz	2_ground_force_px	2_ground_force_py	2_ground_force_pz	2_ground_torque_x	2_ground_torque_y	2_ground_torque_z	3_ground_force_vx	3_ground_force_vy	3_ground_force_vz	3_ground_force_px	3_ground_force_py	3_ground_force_pz	3_ground_torque_x	3_ground_torque_y	3_ground_torque_z	4_ground_force_vx	4_ground_force_vy	4_ground_force_vz	4_ground_force_px	4_ground_force_py	4_ground_force_pz	4_ground_torque_x	4_ground_torque_y	4_ground_torque_z
            0.417000	           -0.000000	            0.000000	            0.000000	            0.168179	            0.000000	            0.038553	            0.000000	            0.000000	           -0.000000	           -0.000000	            0.000000	            0.000000	           -0.185506	            0.000000	            0.247637	            0.000000	           -0.000000	            0.000000	            0.677040	           -0.714094	           -0.536607	            0.413103	            1.262529	            1.872712	            0.034044	            0.054987	            0.035451	           -2.716413	           -1.445599	           -1.704002	           -0.353180	            1.255285	            1.899863	            0.035872	           -0.060158	            0.023701
            0.417500	           -0.000000	            0.000000	            0.000000	            0.168179	            0.000000	            0.038553	            0.000000	            0.000000	           -0.000000	           -0.000000	            0.000000	            0.000000	           -0.185506	            0.000000	            0.247637	            0.000000	           -0.000000	            0.000000	            0.706935	           -0.674561	           -0.580983	            0.413109	            1.262533	            1.872726	            0.034084	            0.050941	            0.033242	           -2.732167	           -1.428437	           -1.740312	           -0.353176	            1.255287	            1.899876	            0.036328	           -0.055781	            0.026018
            0.418000	           -0.000000	            0.000000	            0.000000	            0.168179	            0.000000	            0.038553	            0.000000	            0.000000	           -0.000000	           -0.000000	            0.000000	            0.000000	           -0.185506	            0.000000	            0.247637	            0.000000	           -0.000000	            0.000000	            0.737296	           -0.635807	           -0.623939	            0.413115	            1.262538	            1.872739	            0.034129	            0.046982	            0.031118	           -2.746389	           -1.412648	           -1.775301	           -0.353172	            1.255289	            1.899892	            0.036756	           -0.051570	            0.028258
            0.418500	           -0.000000	            0.000000	            0.000000	            0.168179	            0.000000	            0.038553	            0.000000	            0.000000	           -0.000000	           -0.000000	            0.000000	            0.000000	           -0.185506	            0.000000	            0.247637	            0.000000	           -0.000000	            0.000000	            0.767976	           -0.597974	           -0.665357	            0.413122	            1.262543	            1.872753	            0.034177	            0.043121	            0.029087	           -2.759009	           -1.398283	           -1.808863	           -0.353169	            1.255291	            1.899908	            0.037157	           -0.047535	            0.030413
            0.419000	           -0.000000	            0.000000	            0.000000	            0.168179	            0.000000	            0.038553	            0.000000	            0.000000	           -0.000000	            0.000000	            0.000000	            0.000000	           -0.185506	            0.000000	            0.247637	            0.000000	           -0.000000	            0.000000	            0.798816	           -0.561201	           -0.705137	            0.413129	            1.262548	            1.872767	            0.034229	            0.039371	            0.027157	           -2.769957	           -1.385390	           -1.840918	           -0.353165	            1.255294	            1.899923	            0.037529	           -0.043684	            0.032480
            0.419500	           -0.000000	            0.000000	            0.000000	            0.168179	            0.000000	            0.038553	            0.000000	            0.000000	           -0.000000	            0.000000	            0.000000	            0.000000	           -0.185506	            0.000000	            0.247637	            0.000000	           -0.000000	            0.000000	            0.829656	           -0.525616	           -0.743185	            0.413136	            1.262553	            1.872781	            0.034284	            0.035743	            0.025332	           -2.779166	           -1.374006	           -1.871392	           -0.353161	            1.255296	            1.899939	            0.037871	           -0.040026	            0.034453
            0.420000	           -0.000000	            0.000000	            0.000000	            0.168179	            0.000000	            0.038553	            0.000000	            0.000000	           -0.000000	            0.000000	            0.000000	            0.000000	           -0.185506	            0.000000	            0.247637	            0.000000	           -0.000000	            0.000000	            0.860334	           -0.491337	           -0.779420	            0.413143	            1.262558	            1.872795	            0.034342	            0.032246	            0.023619	           -2.786576	           -1.364160	           -1.900218	           -0.353157	            1.255298	            1.899955	            0.038182	           -0.036567	            0.036329
